
<global>
amp_veltrack=0
ampeg_release=1.50
xf_cccurve=gain
xfin_hicc1=127
xfout_hicc1=127
xfout_locc1=127
</global>

<group>
group_label=RR1
seq_length=4
seq_position=1

<region>
hivel=127
key=A#1
lovel=91
offset=2103
sample=Bass_staccato_FF_A#1_RR1.opus
</region>

<region>
hivel=127
key=A#2
lovel=91
offset=1165
sample=Bass_staccato_FF_A#2_RR1.opus
</region>

<region>
hivel=127
key=A#3
lovel=91
offset=9419
sample=Bass_staccato_FF_A#3_RR1.opus
</region>

<region>
hikey=G5
hivel=127
lokey=A#4
lovel=91
offset=1340
pitch_keycenter=A#4
sample=Bass_staccato_FF_A#4_RR1.opus
</region>

<region>
hivel=127
key=A2
lovel=91
offset=2145
sample=Bass_staccato_FF_A2_RR1.opus
</region>

<region>
hivel=127
key=A3
lovel=91
offset=8415
sample=Bass_staccato_FF_A3_RR1.opus
</region>

<region>
hivel=127
key=A4
lovel=91
offset=5459
sample=Bass_staccato_FF_A4_RR1.opus
</region>

<region>
hivel=127
key=B1
lovel=91
offset=1893
sample=Bass_staccato_FF_B1_RR1.opus
</region>

<region>
hivel=127
key=B2
lovel=91
offset=1480
sample=Bass_staccato_FF_B2_RR1.opus
</region>

<region>
hivel=127
key=B3
lovel=91
offset=10286
sample=Bass_staccato_FF_B3_RR1.opus
</region>

<region>
hivel=127
key=C#2
lovel=91
offset=7413
sample=Bass_staccato_FF_C#2_RR1.opus
</region>

<region>
hivel=127
key=C#3
lovel=91
offset=860
sample=Bass_staccato_FF_C#3_RR1.opus
</region>

<region>
hivel=127
key=C#4
lovel=91
offset=2133
sample=Bass_staccato_FF_C#4_RR1.opus
</region>

<region>
hivel=127
key=C2
lovel=91
offset=4559
sample=Bass_staccato_FF_C2_RR1.opus
</region>

<region>
hivel=127
key=C3
lovel=91
offset=1281
sample=Bass_staccato_FF_C3_RR1.opus
</region>

<region>
hivel=127
key=C4
lovel=91
offset=1199
sample=Bass_staccato_FF_C4_RR1.opus
</region>

<region>
hivel=127
key=D#2
lovel=91
offset=4263
sample=Bass_staccato_FF_D#2_RR1.opus
</region>

<region>
hivel=127
key=D#3
lovel=91
offset=437
sample=Bass_staccato_FF_D#3_RR1.opus
</region>

<region>
hivel=127
key=D#4
lovel=91
offset=2033
sample=Bass_staccato_FF_D#4_RR1.opus
</region>

<region>
hivel=127
key=D2
lovel=91
offset=2140
sample=Bass_staccato_FF_D2_RR1.opus
</region>

<region>
hivel=127
key=D3
lovel=91
offset=1449
sample=Bass_staccato_FF_D3_RR1.opus
</region>

<region>
hivel=127
key=D4
lovel=91
offset=2050
sample=Bass_staccato_FF_D4_RR1.opus
</region>

<region>
hivel=127
key=E2
lovel=91
offset=5391
sample=Bass_staccato_FF_E2_RR1.opus
</region>

<region>
hivel=127
key=E3
lovel=91
offset=936
sample=Bass_staccato_FF_E3_RR1.opus
</region>

<region>
hivel=127
key=E4
lovel=91
offset=9151
sample=Bass_staccato_FF_E4_RR1.opus
</region>

<region>
hivel=127
key=F#2
lovel=91
offset=9812
sample=Bass_staccato_FF_F#2_RR1.opus
</region>

<region>
hivel=127
key=F#3
lovel=91
offset=1364
sample=Bass_staccato_FF_F#3_RR1.opus
</region>

<region>
hivel=127
key=F#4
lovel=91
offset=3951
sample=Bass_staccato_FF_F#4_RR1.opus
</region>

<region>
hivel=127
key=F2
lovel=91
offset=9178
sample=Bass_staccato_FF_F2_RR1.opus
</region>

<region>
hivel=127
key=F3
lovel=91
offset=907
sample=Bass_staccato_FF_F3_RR1.opus
</region>

<region>
hivel=127
key=F4
lovel=91
offset=5146
sample=Bass_staccato_FF_F4_RR1.opus
</region>

<region>
hivel=127
key=G#2
lovel=91
offset=1930
sample=Bass_staccato_FF_G#2_RR1.opus
</region>

<region>
hivel=127
key=G#3
lovel=91
offset=1629
sample=Bass_staccato_FF_G#3_RR1.opus
</region>

<region>
hivel=127
key=G#4
lovel=91
offset=6040
sample=Bass_staccato_FF_G#4_RR1.opus
</region>

<region>
hivel=127
key=G2
lovel=91
offset=1095
sample=Bass_staccato_FF_G2_RR1.opus
</region>

<region>
hivel=127
key=G3
lovel=91
offset=976
sample=Bass_staccato_FF_G3_RR1.opus
</region>

<region>
hivel=127
key=G4
lovel=91
offset=6519
sample=Bass_staccato_FF_G4_RR1.opus
</region>

<region>
hivel=90
key=A#1
lovel=46
offset=1412
sample=Bass_staccato_MF_A#1_RR1.opus
</region>

<region>
hivel=90
key=A#2
lovel=46
offset=1206
sample=Bass_staccato_MF_A#2_RR1.opus
</region>

<region>
hivel=90
key=A#3
lovel=46
offset=4063
sample=Bass_staccato_MF_A#3_RR1.opus
</region>

<region>
hikey=G5
hivel=90
lokey=A#4
lovel=46
offset=2816
pitch_keycenter=A#4
sample=Bass_staccato_MF_A#4_RR1.opus
</region>

<region>
hivel=90
key=A2
lovel=46
offset=2159
sample=Bass_staccato_MF_A2_RR1.opus
</region>

<region>
hivel=90
key=A3
lovel=46
offset=1260
sample=Bass_staccato_MF_A3_RR1.opus
</region>

<region>
hivel=90
key=A4
lovel=46
offset=8449
sample=Bass_staccato_MF_A4_RR1.opus
</region>

<region>
hivel=90
key=B1
lovel=46
offset=9894
sample=Bass_staccato_MF_B1_RR1.opus
</region>

<region>
hivel=90
key=B2
lovel=46
offset=1476
sample=Bass_staccato_MF_B2_RR1.opus
</region>

<region>
hivel=90
key=B3
lovel=46
offset=1100
sample=Bass_staccato_MF_B3_RR1.opus
</region>

<region>
hivel=90
key=C#2
lovel=46
offset=2940
sample=Bass_staccato_MF_C#2_RR1.opus
</region>

<region>
hivel=90
key=C#3
lovel=46
offset=1625
sample=Bass_staccato_MF_C#3_RR1.opus
</region>

<region>
hivel=90
key=C#4
lovel=46
offset=4728
sample=Bass_staccato_MF_C#4_RR1.opus
</region>

<region>
hivel=90
key=C2
lovel=46
offset=6858
sample=Bass_staccato_MF_C2_RR1.opus
</region>

<region>
hivel=90
key=C3
lovel=46
offset=1069
sample=Bass_staccato_MF_C3_RR1.opus
</region>

<region>
hivel=90
key=C4
lovel=46
offset=4982
sample=Bass_staccato_MF_C4_RR1.opus
</region>

<region>
hivel=90
key=D#2
lovel=46
offset=1414
sample=Bass_staccato_MF_D#2_RR1.opus
</region>

<region>
hivel=90
key=D#3
lovel=46
offset=1385
sample=Bass_staccato_MF_D#3_RR1.opus
</region>

<region>
hivel=90
key=D#4
lovel=46
offset=1636
sample=Bass_staccato_MF_D#4_RR1.opus
</region>

<region>
hivel=90
key=D2
lovel=46
offset=2726
sample=Bass_staccato_MF_D2_RR1.opus
</region>

<region>
hivel=90
key=D3
lovel=46
offset=1482
sample=Bass_staccato_MF_D3_RR1.opus
</region>

<region>
hivel=90
key=D4
lovel=46
offset=2069
sample=Bass_staccato_MF_D4_RR1.opus
</region>

<region>
hivel=90
key=E2
lovel=46
offset=8087
sample=Bass_staccato_MF_E2_RR1.opus
</region>

<region>
hivel=90
key=E3
lovel=46
offset=1557
sample=Bass_staccato_MF_E3_RR1.opus
</region>

<region>
hivel=90
key=E4
lovel=46
offset=2078
sample=Bass_staccato_MF_E4_RR1.opus
</region>

<region>
hivel=90
key=F#2
lovel=46
offset=7443
sample=Bass_staccato_MF_F#2_RR1.opus
</region>

<region>
hivel=90
key=F#3
lovel=46
offset=1115
sample=Bass_staccato_MF_F#3_RR1.opus
</region>

<region>
hivel=90
key=F#4
lovel=46
offset=4582
sample=Bass_staccato_MF_F#4_RR1.opus
</region>

<region>
hivel=90
key=F2
lovel=46
offset=3972
sample=Bass_staccato_MF_F2_RR1.opus
</region>

<region>
hivel=90
key=F3
lovel=46
offset=1460
sample=Bass_staccato_MF_F3_RR1.opus
</region>

<region>
hivel=90
key=F4
lovel=46
offset=8048
sample=Bass_staccato_MF_F4_RR1.opus
</region>

<region>
hivel=90
key=G#2
lovel=46
offset=1390
sample=Bass_staccato_MF_G#2_RR1.opus
</region>

<region>
hivel=90
key=G#3
lovel=46
offset=445
sample=Bass_staccato_MF_G#3_RR1.opus
</region>

<region>
hivel=90
key=G#4
lovel=46
offset=3931
sample=Bass_staccato_MF_G#4_RR1.opus
</region>

<region>
hivel=90
key=G2
lovel=46
offset=8670
sample=Bass_staccato_MF_G2_RR1.opus
</region>

<region>
hivel=90
key=G3
lovel=46
offset=1487
sample=Bass_staccato_MF_G3_RR1.opus
</region>

<region>
hivel=90
key=G4
lovel=46
offset=3494
sample=Bass_staccato_MF_G4_RR1.opus
</region>

<region>
hivel=45
key=A#1
lovel=0
sample=Bass_staccato_PP_A#1_RR1.opus
</region>

<region>
hivel=45
key=A#2
lovel=0
offset=1938
sample=Bass_staccato_PP_A#2_RR1.opus
</region>

<region>
hivel=45
key=A#3
lovel=0
sample=Bass_staccato_PP_A#3_RR1.opus
</region>

<region>
hikey=G5
hivel=45
lokey=A#4
lovel=0
pitch_keycenter=A#4
sample=Bass_staccato_PP_A#4_RR1.opus
</region>

<region>
hivel=45
key=A2
lovel=0
offset=1590
sample=Bass_staccato_PP_A2_RR1.opus
</region>

<region>
hivel=45
key=A3
lovel=0
sample=Bass_staccato_PP_A3_RR1.opus
</region>

<region>
hivel=45
key=A4
lovel=0
offset=4121
sample=Bass_staccato_PP_A4_RR1.opus
</region>

<region>
hivel=45
key=B1
lovel=0
sample=Bass_staccato_PP_B1_RR1.opus
</region>

<region>
hivel=45
key=B2
lovel=0
sample=Bass_staccato_PP_B2_RR1.opus
</region>

<region>
hivel=45
key=B3
lovel=0
offset=695
sample=Bass_staccato_PP_B3_RR1.opus
</region>

<region>
hivel=45
key=C#2
lovel=0
sample=Bass_staccato_PP_C#2_RR1.opus
</region>

<region>
hivel=45
key=C#3
lovel=0
offset=938
sample=Bass_staccato_PP_C#3_RR1.opus
</region>

<region>
hivel=45
key=C#4
lovel=0
sample=Bass_staccato_PP_C#4_RR1.opus
</region>

<region>
hivel=45
key=C2
lovel=0
offset=269
sample=Bass_staccato_PP_C2_RR1.opus
</region>

<region>
hivel=45
key=C3
lovel=0
sample=Bass_staccato_PP_C3_RR1.opus
</region>

<region>
hivel=45
key=C4
lovel=0
sample=Bass_staccato_PP_C4_RR1.opus
</region>

<region>
hivel=45
key=D#2
lovel=0
sample=Bass_staccato_PP_D#2_RR1.opus
</region>

<region>
hivel=45
key=D#3
lovel=0
offset=463
sample=Bass_staccato_PP_D#3_RR1.opus
</region>

<region>
hivel=45
key=D#4
lovel=0
offset=5114
sample=Bass_staccato_PP_D#4_RR1.opus
</region>

<region>
hivel=45
key=D2
lovel=0
offset=191
sample=Bass_staccato_PP_D2_RR1.opus
</region>

<region>
hivel=45
key=D3
lovel=0
offset=5031
sample=Bass_staccato_PP_D3_RR1.opus
</region>

<region>
hivel=45
key=D4
lovel=0
sample=Bass_staccato_PP_D4_RR1.opus
</region>

<region>
hivel=45
key=E2
lovel=0
sample=Bass_staccato_PP_E2_RR1.opus
</region>

<region>
hivel=45
key=E3
lovel=0
offset=667
sample=Bass_staccato_PP_E3_RR1.opus
</region>

<region>
hivel=45
key=E4
lovel=0
offset=9060
sample=Bass_staccato_PP_E4_RR1.opus
</region>

<region>
hivel=45
key=F#2
lovel=0
offset=7799
sample=Bass_staccato_PP_F#2_RR1.opus
</region>

<region>
hivel=45
key=F#3
lovel=0
offset=1589
sample=Bass_staccato_PP_F#3_RR1.opus
</region>

<region>
hivel=45
key=F#4
lovel=0
offset=3627
sample=Bass_staccato_PP_F#4_RR1.opus
</region>

<region>
hivel=45
key=F2
lovel=0
sample=Bass_staccato_PP_F2_RR1.opus
</region>

<region>
hivel=45
key=F3
lovel=0
sample=Bass_staccato_PP_F3_RR1.opus
</region>

<region>
hivel=45
key=F4
lovel=0
offset=5215
sample=Bass_staccato_PP_F4_RR1.opus
</region>

<region>
hivel=45
key=G#2
lovel=0
offset=6117
sample=Bass_staccato_PP_G#2_RR1.opus
</region>

<region>
hivel=45
key=G#3
lovel=0
offset=1803
sample=Bass_staccato_PP_G#3_RR1.opus
</region>

<region>
hivel=45
key=G#4
lovel=0
offset=2916
sample=Bass_staccato_PP_G#4_RR1.opus
</region>

<region>
hivel=45
key=G2
lovel=0
offset=3484
sample=Bass_staccato_PP_G2_RR1.opus
</region>

<region>
hivel=45
key=G3
lovel=0
offset=2267
sample=Bass_staccato_PP_G3_RR1.opus
</region>

<region>
hivel=45
key=G4
lovel=0
offset=8998
sample=Bass_staccato_PP_G4_RR1.opus
</region>
</group>

<group>
group_label=RR2
seq_length=4
seq_position=2

<region>
hivel=127
key=A#1
lovel=91
offset=2062
sample=Bass_staccato_FF_A#1_RR2.opus
</region>

<region>
hivel=127
key=A#2
lovel=91
offset=1599
sample=Bass_staccato_FF_A#2_RR2.opus
</region>

<region>
hivel=127
key=A#3
lovel=91
offset=1904
sample=Bass_staccato_FF_A#3_RR2.opus
</region>

<region>
hikey=G5
hivel=127
lokey=A#4
lovel=91
offset=1338
pitch_keycenter=A#4
sample=Bass_staccato_FF_A#4_RR2.opus
</region>

<region>
hivel=127
key=A2
lovel=91
offset=2200
sample=Bass_staccato_FF_A2_RR2.opus
</region>

<region>
hivel=127
key=A3
lovel=91
offset=1854
sample=Bass_staccato_FF_A3_RR2.opus
</region>

<region>
hivel=127
key=A4
lovel=91
offset=2946
sample=Bass_staccato_FF_A4_RR2.opus
</region>

<region>
hivel=127
key=B1
lovel=91
offset=9688
sample=Bass_staccato_FF_B1_RR2.opus
</region>

<region>
hivel=127
key=B2
lovel=91
offset=767
sample=Bass_staccato_FF_B2_RR2.opus
</region>

<region>
hivel=127
key=B3
lovel=91
offset=1002
sample=Bass_staccato_FF_B3_RR2.opus
</region>

<region>
hivel=127
key=C#2
lovel=91
offset=6706
sample=Bass_staccato_FF_C#2_RR2.opus
</region>

<region>
hivel=127
key=C#3
lovel=91
offset=890
sample=Bass_staccato_FF_C#3_RR2.opus
</region>

<region>
hivel=127
key=C#4
lovel=91
offset=3920
sample=Bass_staccato_FF_C#4_RR2.opus
</region>

<region>
hivel=127
key=C2
lovel=91
offset=5365
sample=Bass_staccato_FF_C2_RR2.opus
</region>

<region>
hivel=127
key=C3
lovel=91
offset=1333
sample=Bass_staccato_FF_C3_RR2.opus
</region>

<region>
hivel=127
key=C4
lovel=91
offset=1884
sample=Bass_staccato_FF_C4_RR2.opus
</region>

<region>
hivel=127
key=D#2
lovel=91
offset=3759
sample=Bass_staccato_FF_D#2_RR2.opus
</region>

<region>
hivel=127
key=D#3
lovel=91
offset=784
sample=Bass_staccato_FF_D#3_RR2.opus
</region>

<region>
hivel=127
key=D#4
lovel=91
offset=1580
sample=Bass_staccato_FF_D#4_RR2.opus
</region>

<region>
hivel=127
key=D2
lovel=91
offset=3242
sample=Bass_staccato_FF_D2_RR2.opus
</region>

<region>
hivel=127
key=D3
lovel=91
offset=860
sample=Bass_staccato_FF_D3_RR2.opus
</region>

<region>
hivel=127
key=D4
lovel=91
offset=876
sample=Bass_staccato_FF_D4_RR2.opus
</region>

<region>
hivel=127
key=E2
lovel=91
offset=6076
sample=Bass_staccato_FF_E2_RR2.opus
</region>

<region>
hivel=127
key=E3
lovel=91
offset=1476
sample=Bass_staccato_FF_E3_RR2.opus
</region>

<region>
hivel=127
key=E4
lovel=91
offset=7667
sample=Bass_staccato_FF_E4_RR2.opus
</region>

<region>
hivel=127
key=F#2
lovel=91
offset=2125
sample=Bass_staccato_FF_F#2_RR2.opus
</region>

<region>
hivel=127
key=F#3
lovel=91
offset=874
sample=Bass_staccato_FF_F#3_RR2.opus
</region>

<region>
hivel=127
key=F#4
lovel=91
offset=3250
sample=Bass_staccato_FF_F#4_RR2.opus
</region>

<region>
hivel=127
key=F2
lovel=91
offset=11403
sample=Bass_staccato_FF_F2_RR2.opus
</region>

<region>
hivel=127
key=F3
lovel=91
offset=575
sample=Bass_staccato_FF_F3_RR2.opus
</region>

<region>
hivel=127
key=F4
lovel=91
offset=7040
sample=Bass_staccato_FF_F4_RR2.opus
</region>

<region>
hivel=127
key=G#2
lovel=91
offset=1420
sample=Bass_staccato_FF_G#2_RR2.opus
</region>

<region>
hivel=127
key=G#3
lovel=91
offset=1104
sample=Bass_staccato_FF_G#3_RR2.opus
</region>

<region>
hivel=127
key=G#4
lovel=91
offset=4458
sample=Bass_staccato_FF_G#4_RR2.opus
</region>

<region>
hivel=127
key=G2
lovel=91
offset=1088
sample=Bass_staccato_FF_G2_RR2.opus
</region>

<region>
hivel=127
key=G3
lovel=91
offset=1676
sample=Bass_staccato_FF_G3_RR2.opus
</region>

<region>
hivel=127
key=G4
lovel=91
offset=4592
sample=Bass_staccato_FF_G4_RR2.opus
</region>

<region>
hivel=90
key=A#1
lovel=46
offset=1390
sample=Bass_staccato_MF_A#1_RR2.opus
</region>

<region>
hivel=90
key=A#2
lovel=46
offset=1856
sample=Bass_staccato_MF_A#2_RR2.opus
</region>

<region>
hivel=90
key=A#3
lovel=46
offset=766
sample=Bass_staccato_MF_A#3_RR2.opus
</region>

<region>
hikey=G5
hivel=90
lokey=A#4
lovel=46
offset=1297
pitch_keycenter=A#4
sample=Bass_staccato_MF_A#4_RR2.opus
</region>

<region>
hivel=90
key=A2
lovel=46
offset=2175
sample=Bass_staccato_MF_A2_RR2.opus
</region>

<region>
hivel=90
key=A3
lovel=46
offset=2509
sample=Bass_staccato_MF_A3_RR2.opus
</region>

<region>
hivel=90
key=A4
lovel=46
offset=1650
sample=Bass_staccato_MF_A4_RR2.opus
</region>

<region>
hivel=90
key=B1
lovel=46
offset=5180
sample=Bass_staccato_MF_B1_RR2.opus
</region>

<region>
hivel=90
key=B2
lovel=46
offset=1931
sample=Bass_staccato_MF_B2_RR2.opus
</region>

<region>
hivel=90
key=B3
lovel=46
offset=9361
sample=Bass_staccato_MF_B3_RR2.opus
</region>

<region>
hivel=90
key=C#2
lovel=46
offset=4120
sample=Bass_staccato_MF_C#2_RR2.opus
</region>

<region>
hivel=90
key=C#3
lovel=46
offset=1255
sample=Bass_staccato_MF_C#3_RR2.opus
</region>

<region>
hivel=90
key=C#4
lovel=46
offset=5887
sample=Bass_staccato_MF_C#4_RR2.opus
</region>

<region>
hivel=90
key=C2
lovel=46
offset=5946
sample=Bass_staccato_MF_C2_RR2.opus
</region>

<region>
hivel=90
key=C3
lovel=46
offset=661
sample=Bass_staccato_MF_C3_RR2.opus
</region>

<region>
hivel=90
key=C4
lovel=46
offset=1774
sample=Bass_staccato_MF_C4_RR2.opus
</region>

<region>
hivel=90
key=D#2
lovel=46
offset=3267
sample=Bass_staccato_MF_D#2_RR2.opus
</region>

<region>
hivel=90
key=D#3
lovel=46
offset=1455
sample=Bass_staccato_MF_D#3_RR2.opus
</region>

<region>
hivel=90
key=D#4
lovel=46
offset=1631
sample=Bass_staccato_MF_D#4_RR2.opus
</region>

<region>
hivel=90
key=D2
lovel=46
offset=6896
sample=Bass_staccato_MF_D2_RR2.opus
</region>

<region>
hivel=90
key=D3
lovel=46
offset=1554
sample=Bass_staccato_MF_D3_RR2.opus
</region>

<region>
hivel=90
key=D4
lovel=46
offset=4783
sample=Bass_staccato_MF_D4_RR2.opus
</region>

<region>
hivel=90
key=E2
lovel=46
offset=1929
sample=Bass_staccato_MF_E2_RR2.opus
</region>

<region>
hivel=90
key=E3
lovel=46
offset=2440
sample=Bass_staccato_MF_E3_RR2.opus
</region>

<region>
hivel=90
key=E4
lovel=46
offset=2599
sample=Bass_staccato_MF_E4_RR2.opus
</region>

<region>
hivel=90
key=F#2
lovel=46
offset=10697
sample=Bass_staccato_MF_F#2_RR2.opus
</region>

<region>
hivel=90
key=F#3
lovel=46
offset=834
sample=Bass_staccato_MF_F#3_RR2.opus
</region>

<region>
hivel=90
key=F#4
lovel=46
offset=2938
sample=Bass_staccato_MF_F#4_RR2.opus
</region>

<region>
hivel=90
key=F2
lovel=46
offset=4344
sample=Bass_staccato_MF_F2_RR2.opus
</region>

<region>
hivel=90
key=F3
lovel=46
offset=1382
sample=Bass_staccato_MF_F3_RR2.opus
</region>

<region>
hivel=90
key=F4
lovel=46
offset=8221
sample=Bass_staccato_MF_F4_RR2.opus
</region>

<region>
hivel=90
key=G#2
lovel=46
offset=2418
sample=Bass_staccato_MF_G#2_RR2.opus
</region>

<region>
hivel=90
key=G#3
lovel=46
offset=867
sample=Bass_staccato_MF_G#3_RR2.opus
</region>

<region>
hivel=90
key=G#4
lovel=46
offset=2939
sample=Bass_staccato_MF_G#4_RR2.opus
</region>

<region>
hivel=90
key=G2
lovel=46
offset=7449
sample=Bass_staccato_MF_G2_RR2.opus
</region>

<region>
hivel=90
key=G3
lovel=46
offset=1499
sample=Bass_staccato_MF_G3_RR2.opus
</region>

<region>
hivel=90
key=G4
lovel=46
offset=2955
sample=Bass_staccato_MF_G4_RR2.opus
</region>

<region>
hivel=45
key=A#1
lovel=0
offset=1846
sample=Bass_staccato_PP_A#1_RR2.opus
</region>

<region>
hivel=45
key=A#2
lovel=0
offset=2814
sample=Bass_staccato_PP_A#2_RR2.opus
</region>

<region>
hivel=45
key=A#3
lovel=0
sample=Bass_staccato_PP_A#3_RR2.opus
</region>

<region>
hikey=G5
hivel=45
lokey=A#4
lovel=0
offset=2108
pitch_keycenter=A#4
sample=Bass_staccato_PP_A#4_RR2.opus
</region>

<region>
hivel=45
key=A2
lovel=0
offset=7002
sample=Bass_staccato_PP_A2_RR2.opus
</region>

<region>
hivel=45
key=A3
lovel=0
offset=211
sample=Bass_staccato_PP_A3_RR2.opus
</region>

<region>
hivel=45
key=A4
lovel=0
offset=3247
sample=Bass_staccato_PP_A4_RR2.opus
</region>

<region>
hivel=45
key=B1
lovel=0
offset=5728
sample=Bass_staccato_PP_B1_RR2.opus
</region>

<region>
hivel=45
key=B2
lovel=0
offset=1375
sample=Bass_staccato_PP_B2_RR2.opus
</region>

<region>
hivel=45
key=B3
lovel=0
offset=1657
sample=Bass_staccato_PP_B3_RR2.opus
</region>

<region>
hivel=45
key=C#2
lovel=0
sample=Bass_staccato_PP_C#2_RR2.opus
</region>

<region>
hivel=45
key=C#3
lovel=0
offset=3976
sample=Bass_staccato_PP_C#3_RR2.opus
</region>

<region>
hivel=45
key=C#4
lovel=0
offset=2654
sample=Bass_staccato_PP_C#4_RR2.opus
</region>

<region>
hivel=45
key=C2
lovel=0
offset=6294
sample=Bass_staccato_PP_C2_RR2.opus
</region>

<region>
hivel=45
key=C3
lovel=0
offset=581
sample=Bass_staccato_PP_C3_RR2.opus
</region>

<region>
hivel=45
key=C4
lovel=0
offset=3723
sample=Bass_staccato_PP_C4_RR2.opus
</region>

<region>
hivel=45
key=D#2
lovel=0
sample=Bass_staccato_PP_D#2_RR2.opus
</region>

<region>
hivel=45
key=D#3
lovel=0
sample=Bass_staccato_PP_D#3_RR2.opus
</region>

<region>
hivel=45
key=D#4
lovel=0
sample=Bass_staccato_PP_D#4_RR2.opus
</region>

<region>
hivel=45
key=D2
lovel=0
offset=844
sample=Bass_staccato_PP_D2_RR2.opus
</region>

<region>
hivel=45
key=D3
lovel=0
offset=845
sample=Bass_staccato_PP_D3_RR2.opus
</region>

<region>
hivel=45
key=D4
lovel=0
sample=Bass_staccato_PP_D4_RR2.opus
</region>

<region>
hivel=45
key=E2
lovel=0
sample=Bass_staccato_PP_E2_RR2.opus
</region>

<region>
hivel=45
key=E3
lovel=0
sample=Bass_staccato_PP_E3_RR2.opus
</region>

<region>
hivel=45
key=E4
lovel=0
offset=8178
sample=Bass_staccato_PP_E4_RR2.opus
</region>

<region>
hivel=45
key=F#2
lovel=0
sample=Bass_staccato_PP_F#2_RR2.opus
</region>

<region>
hivel=45
key=F#3
lovel=0
offset=2153
sample=Bass_staccato_PP_F#3_RR2.opus
</region>

<region>
hivel=45
key=F#4
lovel=0
offset=4689
sample=Bass_staccato_PP_F#4_RR2.opus
</region>

<region>
hivel=45
key=F2
lovel=0
sample=Bass_staccato_PP_F2_RR2.opus
</region>

<region>
hivel=45
key=F3
lovel=0
offset=8022
sample=Bass_staccato_PP_F3_RR2.opus
</region>

<region>
hivel=45
key=F4
lovel=0
offset=4426
sample=Bass_staccato_PP_F4_RR2.opus
</region>

<region>
hivel=45
key=G#2
lovel=0
offset=7411
sample=Bass_staccato_PP_G#2_RR2.opus
</region>

<region>
hivel=45
key=G#3
lovel=0
offset=1577
sample=Bass_staccato_PP_G#3_RR2.opus
</region>

<region>
hivel=45
key=G#4
lovel=0
offset=3169
sample=Bass_staccato_PP_G#4_RR2.opus
</region>

<region>
hivel=45
key=G2
lovel=0
offset=7046
sample=Bass_staccato_PP_G2_RR2.opus
</region>

<region>
hivel=45
key=G3
lovel=0
offset=2204
sample=Bass_staccato_PP_G3_RR2.opus
</region>

<region>
hivel=45
key=G4
lovel=0
offset=2841
sample=Bass_staccato_PP_G4_RR2.opus
</region>
</group>

<group>
group_label=RR3
seq_length=4
seq_position=3

<region>
hivel=127
key=A#1
lovel=91
offset=1713
sample=Bass_staccato_FF_A#1_RR3.opus
</region>

<region>
hivel=127
key=A#2
lovel=91
offset=1544
sample=Bass_staccato_FF_A#2_RR3.opus
</region>

<region>
hivel=127
key=A#3
lovel=91
offset=1800
sample=Bass_staccato_FF_A#3_RR3.opus
</region>

<region>
hikey=G5
hivel=127
lokey=A#4
lovel=91
offset=1057
pitch_keycenter=A#4
sample=Bass_staccato_FF_A#4_RR3.opus
</region>

<region>
hivel=127
key=A2
lovel=91
offset=1842
sample=Bass_staccato_FF_A2_RR3.opus
</region>

<region>
hivel=127
key=A3
lovel=91
offset=1140
sample=Bass_staccato_FF_A3_RR3.opus
</region>

<region>
hivel=127
key=A4
lovel=91
offset=2938
sample=Bass_staccato_FF_A4_RR3.opus
</region>

<region>
hivel=127
key=B1
lovel=91
offset=6262
sample=Bass_staccato_FF_B1_RR3.opus
</region>

<region>
hivel=127
key=B2
lovel=91
offset=2823
sample=Bass_staccato_FF_B2_RR3.opus
</region>

<region>
hivel=127
key=B3
lovel=91
offset=2173
sample=Bass_staccato_FF_B3_RR3.opus
</region>

<region>
hivel=127
key=C#2
lovel=91
offset=3601
sample=Bass_staccato_FF_C#2_RR3.opus
</region>

<region>
hivel=127
key=C#3
lovel=91
offset=2150
sample=Bass_staccato_FF_C#3_RR3.opus
</region>

<region>
hivel=127
key=C#4
lovel=91
offset=2390
sample=Bass_staccato_FF_C#4_RR3.opus
</region>

<region>
hivel=127
key=C2
lovel=91
offset=2944
sample=Bass_staccato_FF_C2_RR3.opus
</region>

<region>
hivel=127
key=C3
lovel=91
offset=1249
sample=Bass_staccato_FF_C3_RR3.opus
</region>

<region>
hivel=127
key=C4
lovel=91
offset=2119
sample=Bass_staccato_FF_C4_RR3.opus
</region>

<region>
hivel=127
key=D#2
lovel=91
offset=10450
sample=Bass_staccato_FF_D#2_RR3.opus
</region>

<region>
hivel=127
key=D#3
lovel=91
offset=593
sample=Bass_staccato_FF_D#3_RR3.opus
</region>

<region>
hivel=127
key=D#4
lovel=91
offset=11073
sample=Bass_staccato_FF_D#4_RR3.opus
</region>

<region>
hivel=127
key=D2
lovel=91
offset=2874
sample=Bass_staccato_FF_D2_RR3.opus
</region>

<region>
hivel=127
key=D3
lovel=91
offset=1721
sample=Bass_staccato_FF_D3_RR3.opus
</region>

<region>
hivel=127
key=D4
lovel=91
offset=1229
sample=Bass_staccato_FF_D4_RR3.opus
</region>

<region>
hivel=127
key=E2
lovel=91
offset=2913
sample=Bass_staccato_FF_E2_RR3.opus
</region>

<region>
hivel=127
key=E3
lovel=91
offset=1034
sample=Bass_staccato_FF_E3_RR3.opus
</region>

<region>
hivel=127
key=E4
lovel=91
offset=7688
sample=Bass_staccato_FF_E4_RR3.opus
</region>

<region>
hivel=127
key=F#2
lovel=91
offset=3736
sample=Bass_staccato_FF_F#2_RR3.opus
</region>

<region>
hivel=127
key=F#3
lovel=91
offset=1181
sample=Bass_staccato_FF_F#3_RR3.opus
</region>

<region>
hivel=127
key=F#4
lovel=91
offset=2322
sample=Bass_staccato_FF_F#4_RR3.opus
</region>

<region>
hivel=127
key=F2
lovel=91
offset=11001
sample=Bass_staccato_FF_F2_RR3.opus
</region>

<region>
hivel=127
key=F3
lovel=91
offset=944
sample=Bass_staccato_FF_F3_RR3.opus
</region>

<region>
hivel=127
key=F4
lovel=91
offset=6605
sample=Bass_staccato_FF_F4_RR3.opus
</region>

<region>
hivel=127
key=G#2
lovel=91
offset=2844
sample=Bass_staccato_FF_G#2_RR3.opus
</region>

<region>
hivel=127
key=G#3
lovel=91
offset=825
sample=Bass_staccato_FF_G#3_RR3.opus
</region>

<region>
hivel=127
key=G#4
lovel=91
offset=7716
sample=Bass_staccato_FF_G#4_RR3.opus
</region>

<region>
hivel=127
key=G2
lovel=91
offset=2115
sample=Bass_staccato_FF_G2_RR3.opus
</region>

<region>
hivel=127
key=G3
lovel=91
offset=1008
sample=Bass_staccato_FF_G3_RR3.opus
</region>

<region>
hivel=127
key=G4
lovel=91
offset=5871
sample=Bass_staccato_FF_G4_RR3.opus
</region>

<region>
hivel=90
key=A#1
lovel=46
offset=1277
sample=Bass_staccato_MF_A#1_RR3.opus
</region>

<region>
hivel=90
key=A#2
lovel=46
offset=1597
sample=Bass_staccato_MF_A#2_RR3.opus
</region>

<region>
hivel=90
key=A#3
lovel=46
offset=943
sample=Bass_staccato_MF_A#3_RR3.opus
</region>

<region>
hikey=G5
hivel=90
lokey=A#4
lovel=46
offset=2411
pitch_keycenter=A#4
sample=Bass_staccato_MF_A#4_RR3.opus
</region>

<region>
hivel=90
key=A2
lovel=46
offset=3496
sample=Bass_staccato_MF_A2_RR3.opus
</region>

<region>
hivel=90
key=A3
lovel=46
offset=1858
sample=Bass_staccato_MF_A3_RR3.opus
</region>

<region>
hivel=90
key=A4
lovel=46
offset=1803
sample=Bass_staccato_MF_A4_RR3.opus
</region>

<region>
hivel=90
key=B1
lovel=46
offset=7397
sample=Bass_staccato_MF_B1_RR3.opus
</region>

<region>
hivel=90
key=B2
lovel=46
offset=6083
sample=Bass_staccato_MF_B2_RR3.opus
</region>

<region>
hivel=90
key=B3
lovel=46
offset=1243
sample=Bass_staccato_MF_B3_RR3.opus
</region>

<region>
hivel=90
key=C#2
lovel=46
offset=6632
sample=Bass_staccato_MF_C#2_RR3.opus
</region>

<region>
hivel=90
key=C#3
lovel=46
offset=896
sample=Bass_staccato_MF_C#3_RR3.opus
</region>

<region>
hivel=90
key=C#4
lovel=46
offset=6238
sample=Bass_staccato_MF_C#4_RR3.opus
</region>

<region>
hivel=90
key=C2
lovel=46
offset=5294
sample=Bass_staccato_MF_C2_RR3.opus
</region>

<region>
hivel=90
key=C3
lovel=46
offset=997
sample=Bass_staccato_MF_C3_RR3.opus
</region>

<region>
hivel=90
key=C4
lovel=46
offset=808
sample=Bass_staccato_MF_C4_RR3.opus
</region>

<region>
hivel=90
key=D#2
lovel=46
offset=5838
sample=Bass_staccato_MF_D#2_RR3.opus
</region>

<region>
hivel=90
key=D#3
lovel=46
offset=1122
sample=Bass_staccato_MF_D#3_RR3.opus
</region>

<region>
hivel=90
key=D#4
lovel=46
offset=2125
sample=Bass_staccato_MF_D#4_RR3.opus
</region>

<region>
hivel=90
key=D2
lovel=46
offset=3855
sample=Bass_staccato_MF_D2_RR3.opus
</region>

<region>
hivel=90
key=D3
lovel=46
offset=841
sample=Bass_staccato_MF_D3_RR3.opus
</region>

<region>
hivel=90
key=D4
lovel=46
offset=5917
sample=Bass_staccato_MF_D4_RR3.opus
</region>

<region>
hivel=90
key=E2
lovel=46
offset=3138
sample=Bass_staccato_MF_E2_RR3.opus
</region>

<region>
hivel=90
key=E3
lovel=46
offset=1259
sample=Bass_staccato_MF_E3_RR3.opus
</region>

<region>
hivel=90
key=E4
lovel=46
offset=3271
sample=Bass_staccato_MF_E4_RR3.opus
</region>

<region>
hivel=90
key=F#2
lovel=46
offset=10301
sample=Bass_staccato_MF_F#2_RR3.opus
</region>

<region>
hivel=90
key=F#3
lovel=46
offset=1351
sample=Bass_staccato_MF_F#3_RR3.opus
</region>

<region>
hivel=90
key=F#4
lovel=46
offset=4301
sample=Bass_staccato_MF_F#4_RR3.opus
</region>

<region>
hivel=90
key=F2
lovel=46
offset=6644
sample=Bass_staccato_MF_F2_RR3.opus
</region>

<region>
hivel=90
key=F3
lovel=46
offset=1132
sample=Bass_staccato_MF_F3_RR3.opus
</region>

<region>
hivel=90
key=F4
lovel=46
offset=4742
sample=Bass_staccato_MF_F4_RR3.opus
</region>

<region>
hivel=90
key=G#2
lovel=46
offset=1813
sample=Bass_staccato_MF_G#2_RR3.opus
</region>

<region>
hivel=90
key=G#3
lovel=46
offset=457
sample=Bass_staccato_MF_G#3_RR3.opus
</region>

<region>
hivel=90
key=G#4
lovel=46
offset=2606
sample=Bass_staccato_MF_G#4_RR3.opus
</region>

<region>
hivel=90
key=G2
lovel=46
offset=9688
sample=Bass_staccato_MF_G2_RR3.opus
</region>

<region>
hivel=90
key=G3
lovel=46
offset=1259
sample=Bass_staccato_MF_G3_RR3.opus
</region>

<region>
hivel=90
key=G4
lovel=46
offset=4687
sample=Bass_staccato_MF_G4_RR3.opus
</region>

<region>
hivel=45
key=A#1
lovel=0
offset=1266
sample=Bass_staccato_PP_A#1_RR3.opus
</region>

<region>
hivel=45
key=A#2
lovel=0
offset=2464
sample=Bass_staccato_PP_A#2_RR3.opus
</region>

<region>
hivel=45
key=A#3
lovel=0
sample=Bass_staccato_PP_A#3_RR3.opus
</region>

<region>
hikey=G5
hivel=45
lokey=A#4
lovel=0
offset=2429
pitch_keycenter=A#4
sample=Bass_staccato_PP_A#4_RR3.opus
</region>

<region>
hivel=45
key=A2
lovel=0
offset=8755
sample=Bass_staccato_PP_A2_RR3.opus
</region>

<region>
hivel=45
key=A3
lovel=0
sample=Bass_staccato_PP_A3_RR3.opus
</region>

<region>
hivel=45
key=A4
lovel=0
offset=4473
sample=Bass_staccato_PP_A4_RR3.opus
</region>

<region>
hivel=45
key=B1
lovel=0
offset=1963
sample=Bass_staccato_PP_B1_RR3.opus
</region>

<region>
hivel=45
key=B2
lovel=0
offset=1111
sample=Bass_staccato_PP_B2_RR3.opus
</region>

<region>
hivel=45
key=B3
lovel=0
offset=5145
sample=Bass_staccato_PP_B3_RR3.opus
</region>

<region>
hivel=45
key=C#2
lovel=0
offset=219
sample=Bass_staccato_PP_C#2_RR3.opus
</region>

<region>
hivel=45
key=C#3
lovel=0
offset=2336
sample=Bass_staccato_PP_C#3_RR3.opus
</region>

<region>
hivel=45
key=C#4
lovel=0
offset=4065
sample=Bass_staccato_PP_C#4_RR3.opus
</region>

<region>
hivel=45
key=C2
lovel=0
offset=297
sample=Bass_staccato_PP_C2_RR3.opus
</region>

<region>
hivel=45
key=C3
lovel=0
offset=2123
sample=Bass_staccato_PP_C3_RR3.opus
</region>

<region>
hivel=45
key=C4
lovel=0
offset=4100
sample=Bass_staccato_PP_C4_RR3.opus
</region>

<region>
hivel=45
key=D#2
lovel=0
offset=1387
sample=Bass_staccato_PP_D#2_RR3.opus
</region>

<region>
hivel=45
key=D#3
lovel=0
offset=441
sample=Bass_staccato_PP_D#3_RR3.opus
</region>

<region>
hivel=45
key=D#4
lovel=0
offset=5448
sample=Bass_staccato_PP_D#4_RR3.opus
</region>

<region>
hivel=45
key=D2
lovel=0
offset=4170
sample=Bass_staccato_PP_D2_RR3.opus
</region>

<region>
hivel=45
key=D3
lovel=0
offset=2508
sample=Bass_staccato_PP_D3_RR3.opus
</region>

<region>
hivel=45
key=D4
lovel=0
offset=3329
sample=Bass_staccato_PP_D4_RR3.opus
</region>

<region>
hivel=45
key=E2
lovel=0
sample=Bass_staccato_PP_E2_RR3.opus
</region>

<region>
hivel=45
key=E3
lovel=0
offset=2170
sample=Bass_staccato_PP_E3_RR3.opus
</region>

<region>
hivel=45
key=E4
lovel=0
offset=4257
sample=Bass_staccato_PP_E4_RR3.opus
</region>

<region>
hivel=45
key=F#2
lovel=0
offset=5759
sample=Bass_staccato_PP_F#2_RR3.opus
</region>

<region>
hivel=45
key=F#3
lovel=0
offset=577
sample=Bass_staccato_PP_F#3_RR3.opus
</region>

<region>
hivel=45
key=F#4
lovel=0
offset=3490
sample=Bass_staccato_PP_F#4_RR3.opus
</region>

<region>
hivel=45
key=F2
lovel=0
sample=Bass_staccato_PP_F2_RR3.opus
</region>

<region>
hivel=45
key=F3
lovel=0
offset=1172
sample=Bass_staccato_PP_F3_RR3.opus
</region>

<region>
hivel=45
key=F4
lovel=0
offset=4821
sample=Bass_staccato_PP_F4_RR3.opus
</region>

<region>
hivel=45
key=G#2
lovel=0
offset=464
sample=Bass_staccato_PP_G#2_RR3.opus
</region>

<region>
hivel=45
key=G#3
lovel=0
offset=2073
sample=Bass_staccato_PP_G#3_RR3.opus
</region>

<region>
hivel=45
key=G#4
lovel=0
offset=3520
sample=Bass_staccato_PP_G#4_RR3.opus
</region>

<region>
hivel=45
key=G2
lovel=0
offset=8805
sample=Bass_staccato_PP_G2_RR3.opus
</region>

<region>
hivel=45
key=G3
lovel=0
offset=2617
sample=Bass_staccato_PP_G3_RR3.opus
</region>

<region>
hivel=45
key=G4
lovel=0
offset=2758
sample=Bass_staccato_PP_G4_RR3.opus
</region>
</group>

<group>
group_label=RR4
seq_length=4
seq_position=4

<region>
hivel=127
key=A#1
lovel=91
offset=2096
sample=Bass_staccato_FF_A#1_RR4.opus
</region>

<region>
hivel=127
key=A#2
lovel=91
offset=2080
sample=Bass_staccato_FF_A#2_RR4.opus
</region>

<region>
hivel=127
key=A#3
lovel=91
offset=1735
sample=Bass_staccato_FF_A#3_RR4.opus
</region>

<region>
hikey=G5
hivel=127
lokey=A#4
lovel=91
offset=1285
pitch_keycenter=A#4
sample=Bass_staccato_FF_A#4_RR4.opus
</region>

<region>
hivel=127
key=A2
lovel=91
offset=980
sample=Bass_staccato_FF_A2_RR4.opus
</region>

<region>
hivel=127
key=A3
lovel=91
offset=1256
sample=Bass_staccato_FF_A3_RR4.opus
</region>

<region>
hivel=127
key=A4
lovel=91
offset=2265
sample=Bass_staccato_FF_A4_RR4.opus
</region>

<region>
hivel=127
key=B1
lovel=91
offset=7172
sample=Bass_staccato_FF_B1_RR4.opus
</region>

<region>
hivel=127
key=B2
lovel=91
offset=3090
sample=Bass_staccato_FF_B2_RR4.opus
</region>

<region>
hivel=127
key=B3
lovel=91
offset=1136
sample=Bass_staccato_FF_B3_RR4.opus
</region>

<region>
hivel=127
key=C#2
lovel=91
offset=7635
sample=Bass_staccato_FF_C#2_RR4.opus
</region>

<region>
hivel=127
key=C#3
lovel=91
offset=3996
sample=Bass_staccato_FF_C#3_RR4.opus
</region>

<region>
hivel=127
key=C#4
lovel=91
offset=11904
sample=Bass_staccato_FF_C#4_RR4.opus
</region>

<region>
hivel=127
key=C2
lovel=91
offset=5764
sample=Bass_staccato_FF_C2_RR4.opus
</region>

<region>
hivel=127
key=C3
lovel=91
offset=1362
sample=Bass_staccato_FF_C3_RR4.opus
</region>

<region>
hivel=127
key=C4
lovel=91
offset=1383
sample=Bass_staccato_FF_C4_RR4.opus
</region>

<region>
hivel=127
key=D#2
lovel=91
offset=3743
sample=Bass_staccato_FF_D#2_RR4.opus
</region>

<region>
hivel=127
key=D#3
lovel=91
offset=986
sample=Bass_staccato_FF_D#3_RR4.opus
</region>

<region>
hivel=127
key=D#4
lovel=91
offset=1532
sample=Bass_staccato_FF_D#4_RR4.opus
</region>

<region>
hivel=127
key=D2
lovel=91
offset=4765
sample=Bass_staccato_FF_D2_RR4.opus
</region>

<region>
hivel=127
key=D3
lovel=91
offset=2327
sample=Bass_staccato_FF_D3_RR4.opus
</region>

<region>
hivel=127
key=D4
lovel=91
offset=1508
sample=Bass_staccato_FF_D4_RR4.opus
</region>

<region>
hivel=127
key=E2
lovel=91
offset=6006
sample=Bass_staccato_FF_E2_RR4.opus
</region>

<region>
hivel=127
key=E3
lovel=91
offset=694
sample=Bass_staccato_FF_E3_RR4.opus
</region>

<region>
hivel=127
key=E4
lovel=91
offset=8217
sample=Bass_staccato_FF_E4_RR4.opus
</region>

<region>
hivel=127
key=F#2
lovel=91
offset=3632
sample=Bass_staccato_FF_F#2_RR4.opus
</region>

<region>
hivel=127
key=F#3
lovel=91
offset=1382
sample=Bass_staccato_FF_F#3_RR4.opus
</region>

<region>
hivel=127
key=F#4
lovel=91
offset=2327
sample=Bass_staccato_FF_F#4_RR4.opus
</region>

<region>
hivel=127
key=F2
lovel=91
offset=1786
sample=Bass_staccato_FF_F2_RR4.opus
</region>

<region>
hivel=127
key=F3
lovel=91
offset=1448
sample=Bass_staccato_FF_F3_RR4.opus
</region>

<region>
hivel=127
key=F4
lovel=91
offset=6288
sample=Bass_staccato_FF_F4_RR4.opus
</region>

<region>
hivel=127
key=G#2
lovel=91
offset=2004
sample=Bass_staccato_FF_G#2_RR4.opus
</region>

<region>
hivel=127
key=G#3
lovel=91
offset=906
sample=Bass_staccato_FF_G#3_RR4.opus
</region>

<region>
hivel=127
key=G#4
lovel=91
offset=2327
sample=Bass_staccato_FF_G#4_RR4.opus
</region>

<region>
hivel=127
key=G2
lovel=91
offset=2630
sample=Bass_staccato_FF_G2_RR4.opus
</region>

<region>
hivel=127
key=G3
lovel=91
offset=988
sample=Bass_staccato_FF_G3_RR4.opus
</region>

<region>
hivel=127
key=G4
lovel=91
offset=2890
sample=Bass_staccato_FF_G4_RR4.opus
</region>

<region>
hivel=90
key=A#1
lovel=46
offset=1275
sample=Bass_staccato_MF_A#1_RR4.opus
</region>

<region>
hivel=90
key=A#2
lovel=46
offset=7256
sample=Bass_staccato_MF_A#2_RR4.opus
</region>

<region>
hivel=90
key=A#3
lovel=46
offset=788
sample=Bass_staccato_MF_A#3_RR4.opus
</region>

<region>
hikey=G5
hivel=90
lokey=A#4
lovel=46
offset=2111
pitch_keycenter=A#4
sample=Bass_staccato_MF_A#4_RR4.opus
</region>

<region>
hivel=90
key=A2
lovel=46
offset=1716
sample=Bass_staccato_MF_A2_RR4.opus
</region>

<region>
hivel=90
key=A3
lovel=46
offset=2309
sample=Bass_staccato_MF_A3_RR4.opus
</region>

<region>
hivel=90
key=A4
lovel=46
offset=3613
sample=Bass_staccato_MF_A4_RR4.opus
</region>

<region>
hivel=90
key=B1
lovel=46
offset=7552
sample=Bass_staccato_MF_B1_RR4.opus
</region>

<region>
hivel=90
key=B2
lovel=46
offset=7532
sample=Bass_staccato_MF_B2_RR4.opus
</region>

<region>
hivel=90
key=B3
lovel=46
offset=1353
sample=Bass_staccato_MF_B3_RR4.opus
</region>

<region>
hivel=90
key=C#2
lovel=46
offset=8331
sample=Bass_staccato_MF_C#2_RR4.opus
</region>

<region>
hivel=90
key=C#3
lovel=46
offset=1169
sample=Bass_staccato_MF_C#3_RR4.opus
</region>

<region>
hivel=90
key=C#4
lovel=46
offset=7904
sample=Bass_staccato_MF_C#4_RR4.opus
</region>

<region>
hivel=90
key=C2
lovel=46
offset=3880
sample=Bass_staccato_MF_C2_RR4.opus
</region>

<region>
hivel=90
key=C3
lovel=46
offset=1006
sample=Bass_staccato_MF_C3_RR4.opus
</region>

<region>
hivel=90
key=C4
lovel=46
offset=8904
sample=Bass_staccato_MF_C4_RR4.opus
</region>

<region>
hivel=90
key=D#2
lovel=46
offset=8521
sample=Bass_staccato_MF_D#2_RR4.opus
</region>

<region>
hivel=90
key=D#3
lovel=46
offset=1047
sample=Bass_staccato_MF_D#3_RR4.opus
</region>

<region>
hivel=90
key=D#4
lovel=46
offset=3443
sample=Bass_staccato_MF_D#4_RR4.opus
</region>

<region>
hivel=90
key=D2
lovel=46
offset=3268
sample=Bass_staccato_MF_D2_RR4.opus
</region>

<region>
hivel=90
key=D3
lovel=46
offset=2084
sample=Bass_staccato_MF_D3_RR4.opus
</region>

<region>
hivel=90
key=D4
lovel=46
offset=5901
sample=Bass_staccato_MF_D4_RR4.opus
</region>

<region>
hivel=90
key=E2
lovel=46
offset=1747
sample=Bass_staccato_MF_E2_RR4.opus
</region>

<region>
hivel=90
key=E3
lovel=46
offset=985
sample=Bass_staccato_MF_E3_RR4.opus
</region>

<region>
hivel=90
key=E4
lovel=46
offset=7541
sample=Bass_staccato_MF_E4_RR4.opus
</region>

<region>
hivel=90
key=F#2
lovel=46
offset=8361
sample=Bass_staccato_MF_F#2_RR4.opus
</region>

<region>
hivel=90
key=F#3
lovel=46
offset=1345
sample=Bass_staccato_MF_F#3_RR4.opus
</region>

<region>
hivel=90
key=F#4
lovel=46
offset=4930
sample=Bass_staccato_MF_F#4_RR4.opus
</region>

<region>
hivel=90
key=F2
lovel=46
offset=9946
sample=Bass_staccato_MF_F2_RR4.opus
</region>

<region>
hivel=90
key=F3
lovel=46
offset=920
sample=Bass_staccato_MF_F3_RR4.opus
</region>

<region>
hivel=90
key=F4
lovel=46
offset=6916
sample=Bass_staccato_MF_F4_RR4.opus
</region>

<region>
hivel=90
key=G#2
lovel=46
offset=2796
sample=Bass_staccato_MF_G#2_RR4.opus
</region>

<region>
hivel=90
key=G#3
lovel=46
offset=467
sample=Bass_staccato_MF_G#3_RR4.opus
</region>

<region>
hivel=90
key=G#4
lovel=46
offset=2445
sample=Bass_staccato_MF_G#4_RR4.opus
</region>

<region>
hivel=90
key=G2
lovel=46
offset=9393
sample=Bass_staccato_MF_G2_RR4.opus
</region>

<region>
hivel=90
key=G3
lovel=46
offset=1245
sample=Bass_staccato_MF_G3_RR4.opus
</region>

<region>
hivel=90
key=G4
lovel=46
offset=5473
sample=Bass_staccato_MF_G4_RR4.opus
</region>

<region>
hivel=45
key=A#1
lovel=0
offset=1317
sample=Bass_staccato_PP_A#1_RR4.opus
</region>

<region>
hivel=45
key=A#2
lovel=0
offset=6366
sample=Bass_staccato_PP_A#2_RR4.opus
</region>

<region>
hivel=45
key=A#3
lovel=0
sample=Bass_staccato_PP_A#3_RR4.opus
</region>

<region>
hikey=G5
hivel=45
lokey=A#4
lovel=0
offset=1812
pitch_keycenter=A#4
sample=Bass_staccato_PP_A#4_RR4.opus
</region>

<region>
hivel=45
key=A2
lovel=0
offset=2583
sample=Bass_staccato_PP_A2_RR4.opus
</region>

<region>
hivel=45
key=A3
lovel=0
sample=Bass_staccato_PP_A3_RR4.opus
</region>

<region>
hivel=45
key=A4
lovel=0
offset=2382
sample=Bass_staccato_PP_A4_RR4.opus
</region>

<region>
hivel=45
key=B1
lovel=0
offset=11110
sample=Bass_staccato_PP_B1_RR4.opus
</region>

<region>
hivel=45
key=B2
lovel=0
offset=6051
sample=Bass_staccato_PP_B2_RR4.opus
</region>

<region>
hivel=45
key=B3
lovel=0
sample=Bass_staccato_PP_B3_RR4.opus
</region>

<region>
hivel=45
key=C#2
lovel=0
offset=859
sample=Bass_staccato_PP_C#2_RR4.opus
</region>

<region>
hivel=45
key=C#3
lovel=0
offset=238
sample=Bass_staccato_PP_C#3_RR4.opus
</region>

<region>
hivel=45
key=C#4
lovel=0
offset=2680
sample=Bass_staccato_PP_C#4_RR4.opus
</region>

<region>
hivel=45
key=C2
lovel=0
offset=953
sample=Bass_staccato_PP_C2_RR4.opus
</region>

<region>
hivel=45
key=C3
lovel=0
offset=248
sample=Bass_staccato_PP_C3_RR4.opus
</region>

<region>
hivel=45
key=C4
lovel=0
offset=3180
sample=Bass_staccato_PP_C4_RR4.opus
</region>

<region>
hivel=45
key=D#2
lovel=0
offset=1345
sample=Bass_staccato_PP_D#2_RR4.opus
</region>

<region>
hivel=45
key=D#3
lovel=0
offset=1312
sample=Bass_staccato_PP_D#3_RR4.opus
</region>

<region>
hivel=45
key=D#4
lovel=0
sample=Bass_staccato_PP_D#4_RR4.opus
</region>

<region>
hivel=45
key=D2
lovel=0
sample=Bass_staccato_PP_D2_RR4.opus
</region>

<region>
hivel=45
key=D3
lovel=0
offset=1526
sample=Bass_staccato_PP_D3_RR4.opus
</region>

<region>
hivel=45
key=D4
lovel=0
sample=Bass_staccato_PP_D4_RR4.opus
</region>

<region>
hivel=45
key=E2
lovel=0
offset=492
sample=Bass_staccato_PP_E2_RR4.opus
</region>

<region>
hivel=45
key=E3
lovel=0
offset=1694
sample=Bass_staccato_PP_E3_RR4.opus
</region>

<region>
hivel=45
key=E4
lovel=0
offset=3268
sample=Bass_staccato_PP_E4_RR4.opus
</region>

<region>
hivel=45
key=F#2
lovel=0
offset=5390
sample=Bass_staccato_PP_F#2_RR4.opus
</region>

<region>
hivel=45
key=F#3
lovel=0
offset=3189
sample=Bass_staccato_PP_F#3_RR4.opus
</region>

<region>
hivel=45
key=F#4
lovel=0
offset=3924
sample=Bass_staccato_PP_F#4_RR4.opus
</region>

<region>
hivel=45
key=F2
lovel=0
offset=4998
sample=Bass_staccato_PP_F2_RR4.opus
</region>

<region>
hivel=45
key=F3
lovel=0
offset=4488
sample=Bass_staccato_PP_F3_RR4.opus
</region>

<region>
hivel=45
key=F4
lovel=0
offset=4980
sample=Bass_staccato_PP_F4_RR4.opus
</region>

<region>
hivel=45
key=G#2
lovel=0
offset=463
sample=Bass_staccato_PP_G#2_RR4.opus
</region>

<region>
hivel=45
key=G#3
lovel=0
offset=929
sample=Bass_staccato_PP_G#3_RR4.opus
</region>

<region>
hivel=45
key=G#4
lovel=0
offset=2834
sample=Bass_staccato_PP_G#4_RR4.opus
</region>

<region>
hivel=45
key=G2
lovel=0
offset=9770
sample=Bass_staccato_PP_G2_RR4.opus
</region>

<region>
hivel=45
key=G3
lovel=0
offset=2907
sample=Bass_staccato_PP_G3_RR4.opus
</region>

<region>
hivel=45
key=G4
lovel=0
offset=5641
sample=Bass_staccato_PP_G4_RR4.opus
</region>
</group>